<svg xmlns="http://www.w3.org/2000/svg" viewBox="0 0 200 200"><defs><linearGradient id="profileGradient" x1="0%" y1="0%" x2="100%" y2="100%"><stop offset="0%" style="stop-color:#4F46E5"/><stop offset="100%" style="stop-color:#7C3AED"/></linearGradient></defs><circle cx="100" cy="70" r="40" fill="url(#profileGradient)" opacity="0.1"/><path d="M100 20c-27.6 0-50 22.4-50 50s22.4 50 50 50 50-22.4 50-50-22.4-50-50-50zm0 20c11 0 20 9 20 20s-9 20-20 20-20-9-20-20 9-20 20-20zm0 70c-16.5 0-31.3-7.5-41-19.2 10.3-15.5 41-23.8 41-23.8s30.7 8.3 41 23.8c-9.7 11.7-24.5 19.2-41 19.2z" fill="url(#profileGradient)"/><rect x="40" y="130" width="120" height="15" rx="2" fill="url(#profileGradient)" opacity="0.7"/><rect x="60" y="155" width="80" height="15" rx="2" fill="url(#profileGradient)" opacity="0.4"/></svg>