<svg xmlns="http://www.w3.org/2000/svg" viewBox="0 0 200 200"><defs><linearGradient id="matchGradient" x1="0%" y1="0%" x2="100%" y2="100%"><stop offset="0%" style="stop-color:#10B981"/><stop offset="100%" style="stop-color:#059669"/></linearGradient></defs><rect x="20" y="40" width="70" height="90" rx="4" fill="url(#matchGradient)" opacity="0.1"/><rect x="110" y="70" width="70" height="90" rx="4" fill="url(#matchGradient)" opacity="0.1"/><path d="M45 60h20v4H45zm45 30h20v4H90zm-45 20h20v4H45zm45 30h20v4H90z" fill="url(#matchGradient)"/><path d="M90 85c20 0 20 30 40 30" stroke="url(#matchGradient)" stroke-width="3" fill="none"/><circle cx="55" cy="85" r="15" fill="url(#matchGradient)" opacity="0.7"/><circle cx="145" cy="115" r="15" fill="url(#matchGradient)" opacity="0.7"/><path d="M50 82l10 6-10 6zm90 24l10 6-10 6z" fill="url(#matchGradient)"/></svg>