<svg xmlns="http://www.w3.org/2000/svg" viewBox="0 0 200 200"><defs><linearGradient id="msgGradient" x1="0%" y1="0%" x2="100%" y2="100%"><stop offset="0%" style="stop-color:#3B82F6"/><stop offset="100%" style="stop-color:#2563EB"/></linearGradient></defs><path d="M40 40h80c11 0 20 9 20 20v40c0 11-9 20-20 20H90l-20 20-20-20H40c-11 0-20-9-20-20V60c0-11 9-20 20-20z" fill="url(#msgGradient)" opacity="0.1"/><path d="M80 80h80c11 0 20 9 20 20v40c0 11-9 20-20 20h-10l-20 20-20-20H80c-11 0-20-9-20-20v-40c0-11 9-20 20-20z" fill="url(#msgGradient)" opacity="0.2"/><rect x="50" y="60" width="40" height="6" rx="3" fill="url(#msgGradient)"/><rect x="50" y="75" width="30" height="6" rx="3" fill="url(#msgGradient)" opacity="0.7"/><rect x="90" y="100" width="40" height="6" rx="3" fill="url(#msgGradient)"/><rect x="90" y="115" width="30" height="6" rx="3" fill="url(#msgGradient)" opacity="0.7"/></svg>